<mxfile host="app.diagrams.net" modified="2023-03-30T19:33:36.533Z" agent="Mozilla/5.0 (Windows NT 10.0; Win64; x64) AppleWebKit/537.36 (KHTML, like Gecko) Chrome/111.0.0.0 Safari/537.36 Edg/111.0.1661.54" version="21.1.2" etag="vAWj-AP7kUWgCVes3sl6" type="github">
  <diagram name="Sayfa -1" id="n652WfsC2oz8kNvWTDDa">
    <mxGraphModel>
      <root>
        <mxCell id="0" />
        <mxCell id="1" parent="0" />
      </root>
    </mxGraphModel>
  </diagram>
</mxfile>
